<svg width="500" height="500" viewBox="0 0 500 500" fill="none" xmlns="http://www.w3.org/2000/svg">
<path fill-rule="evenodd" clip-rule="evenodd" d="M170.502 97.3586L175.977 46.6699L183.53 31.1818L211.098 75.0314C211.098 75.0314 235.645 82.8761 236.589 80.0601C237.533 77.0429 244.142 37.6184 244.142 37.6184L263.213 15.4924C263.213 15.4924 291.159 42.2447 294.746 49.486C298.334 56.7272 311.74 89.3128 311.551 97.5597C311.363 105.807 309.286 112.847 312.496 111.439C315.706 109.83 341.008 79.0543 341.008 79.0543L378.961 65.3765L404.641 64.773L384.814 123.105C384.814 123.105 385.003 143.823 386.702 144.225C388.591 144.628 417.103 134.973 417.103 134.973L445.048 140.605C445.048 140.605 419.369 169.167 417.103 172.587C414.837 176.207 405.207 205.374 405.207 207.988C405.207 210.603 405.018 219.454 405.018 219.454C405.018 219.454 430.887 219.253 433.53 222.471C436.174 225.89 441.65 233.132 445.237 236.953C448.825 240.574 483.568 259.28 483.568 259.28L487.533 264.711C487.533 264.711 454.867 306.55 453.734 307.354C452.412 308.159 427.299 320.026 418.991 321.434C410.683 322.641 393.5 324.451 393.5 324.451L406.151 340.141L418.424 370.111L422.579 402.898L419.557 411.346C419.557 411.346 401.242 413.961 395.011 410.542C388.779 407.122 367.82 392.64 367.82 392.64L361.212 438.702L348.372 473.098L323.07 484.965C323.07 484.965 324.391 466.661 318.538 459.219C312.684 451.776 303.243 437.696 294.557 434.277C285.683 430.656 275.675 427.438 274.542 422.61C273.409 417.582 272.654 403.904 272.654 403.904C262.08 387.812 248.485 384.996 236.211 383.789C226.959 382.985 219.218 379.766 209.588 391.232L188.628 416.174C188.628 416.174 192.594 456 193.349 462.638C194.104 469.276 197.314 487.379 197.314 487.379L177.488 476.316C177.488 476.316 162.382 467.063 159.928 459.42C157.662 451.776 146.521 425.829 146.332 421.202C146.144 416.576 142.367 393.847 142.367 393.847C142.367 393.847 128.961 388.818 126.506 389.22C124.051 389.421 105.358 396.461 103.47 397.467C101.582 398.473 89.497 412.553 89.6858 406.921C89.8747 401.289 90.4411 389.824 92.3294 387.008C94.2176 384.192 99.1269 362.267 99.1269 362.267C99.1269 362.267 104.603 351.003 96.2946 351.003C87.9864 351.003 72.8807 346.98 71.1813 345.773C69.2931 344.365 53.0544 333.704 46.4457 333.302C40.0257 332.698 16.6118 330.888 16.6118 330.888C16.6118 330.888 23.9759 309.768 25.1088 307.756C26.4305 305.745 37.0046 289.05 39.0816 288.044C41.3475 287.038 72.5031 272.154 72.5031 272.154L79.8671 267.125C79.8671 267.125 59.0967 254.654 55.1314 253.246C51.1662 251.838 40.2145 246.005 37.7598 242.585C35.3052 239.166 29.4517 227.298 29.4517 227.298L29.0741 220.661L71.3701 221.465C71.3701 221.465 68.5378 213.822 67.4049 212.816C66.0831 211.81 51.355 201.954 49.8445 200.345C48.3339 198.736 36.6269 187.673 36.6269 187.673L24.1647 158.104L22.0876 144.628C22.0876 144.628 55.3203 150.461 56.2644 150.662C57.0197 150.863 80.2447 153.478 82.133 153.478C84.0212 153.478 96.6723 152.07 97.0499 152.07C97.4275 152.07 91.3852 121.295 87.0423 113.45C82.6994 105.606 75.713 94.1402 74.9577 92.3299C74.0136 90.5196 62.3067 83.0772 82.6994 82.8761C103.281 82.6749 135.003 83.4795 137.647 83.6806C140.479 83.8818 155.962 92.5311 156.529 93.5368C156.718 94.3414 170.502 97.3586 170.502 97.3586Z" fill="#FFCC00"/>
<path fill-rule="evenodd" clip-rule="evenodd" d="M255.287 327.266C267.372 294.479 300.038 253.244 321.752 268.934C318.353 276.577 289.275 317.208 268.127 336.518C253.21 349.995 246.979 350.196 255.287 327.266ZM304.569 428.844C323.074 434.476 327.795 456.2 326.85 474.906C356.118 461.832 362.538 417.379 357.44 373.931C370.657 393.04 381.42 401.488 411.065 403.5C413.52 382.983 411.065 366.891 403.512 351.604C394.26 332.898 386.707 328.271 381.231 325.053C369.524 318.214 376.133 313.387 385.952 314.795C394.826 316.002 408.988 319.622 433.912 307.151C449.773 299.307 470.921 279.795 476.964 263.302C430.514 250.629 435.045 209.194 393.882 237.354C394.071 196.119 396.148 171.177 431.08 146.436C405.023 132.356 380.665 162.126 377.644 164.942C365.181 111.035 381.609 94.5407 389.728 71.0067C345.166 74.6273 327.039 86.6961 317.221 129.741C304.947 119.282 304.192 121.092 283.233 118.276C293.051 95.5464 298.905 90.3167 285.876 62.1564C277.379 43.8521 271.337 48.6796 260.385 25.3467C228.474 56.7254 252.266 85.2881 237.349 97.3568C213.746 116.264 189.955 53.1048 183.346 46.8693C173.527 68.7941 173.338 106.006 193.353 120.488C183.346 123.707 176.737 129.54 170.695 134.971C163.708 127.126 160.499 111.437 137.085 99.7705C117.825 90.1155 102.719 87.9029 85.7251 96.1499C101.397 102.587 95.9214 135.977 119.335 167.355C80.4381 153.879 73.2629 174.798 28.1345 155.89C30.0227 177.413 43.2402 187.068 55.1359 195.717C60.6118 199.74 79.6828 209.998 88.1798 214.423C94.0332 217.44 99.1314 223.475 89.8792 226.894C75.7175 231.923 35.6873 225.687 33.4214 225.687C39.0861 238.963 48.3384 246.003 63.4441 251.836C87.4245 261.089 102.53 240.773 99.3203 273.761C94.7885 276.778 28.8897 287.238 27.1904 321.231C35.4985 318.818 44.3731 319.823 54.003 321.231C72.1299 327.065 69.6752 333.3 77.7946 340.944C86.4804 347.783 104.985 346.173 116.692 348.386C114.237 354.219 96.2991 371.719 94.4109 393.845C105.74 377.15 124.245 376.949 150.491 386.201C148.98 420.597 156.344 457.407 188.444 473.699C182.968 451.775 178.814 401.086 199.396 386C182.591 378.759 170.506 367.092 158.421 353.213L173.527 299.105C242.258 296.692 291.163 230.917 278.512 187.068C269.637 156.695 235.65 130.546 170.317 172.987C149.547 186.464 151.624 208.389 180.702 191.895C298.338 134.971 253.21 266.319 182.968 271.951C183.535 269.135 193.92 242.785 195.242 239.365C208.082 205.372 195.431 176.608 171.261 224.279C158.044 250.629 140.295 299.508 134.252 327.467C123.867 307.553 118.014 284.221 118.58 259.681C120.279 186.665 177.304 128.937 245.846 130.948C314.388 132.758 368.58 193.504 366.692 266.52C365.937 297.295 359.517 332.697 335.159 348.989C326.284 355.024 323.64 351.604 330.06 335.11C337.047 311.174 349.887 281.807 355.74 258.675C361.405 236.549 344.789 233.733 334.403 247.411C263.595 212.211 204.494 350.8 234.517 372.523C252.455 385.397 279.645 355.627 297.961 333.904C302.304 328.674 306.269 323.846 309.29 320.427C307.968 323.846 306.08 329.277 304.192 335.311C299.094 352.409 295.695 374.133 317.221 368.299C304.003 378.96 288.708 386.805 272.281 391.23C287.953 404.707 289.464 422.81 304.569 428.844ZM203.55 495.624C199.396 463.642 200.34 431.861 207.326 411.948C215.068 390.224 254.343 381.776 264.917 407.925C279.267 444.131 309.668 437.694 313.066 471.688C314.577 487.578 306.269 508.699 324.773 496.228C358.195 477.119 372.545 455.395 371.224 403.701C383.119 412.35 403.323 420.195 421.073 420.999C429.192 384.19 429.381 365.483 407.666 331.289C442.032 331.49 484.894 299.709 500 253.043C455.627 238.561 469.789 241.176 436.367 210.4C427.304 202.958 410.121 209.596 411.065 204.567C412.953 193.102 418.051 189.28 454.494 137.988C434.857 126.724 415.974 119.282 396.714 130.747C388.218 101.38 406.344 80.4605 417.296 55.5185C355.74 53.9094 349.509 52.0991 316.088 88.3052C305.514 29.772 277.19 34.3983 260.008 0.00249931C247.168 -0.399791 221.11 47.8751 222.621 63.3632C200.718 60.7483 194.675 26.3525 179.947 21.7262C170.506 32.9903 160.687 65.777 162.009 85.2881C155.967 80.8629 151.057 77.6445 141.805 75.4319C118.202 69.5987 72.5076 68.9953 54.3807 77.6445C58.7236 97.3567 75.5287 110.23 81.1934 147.241C32.0997 145.833 29.2674 135.373 11.5181 133.362C11.3293 188.274 34.1767 202.153 57.5906 214.826C42.6737 216.032 30.9668 215.831 19.6375 215.027C15.6722 254.853 48.5272 257.066 54.1918 265.916C32.6662 270.543 0.755287 310.973 0 344.765C6.60876 343.156 19.6375 330.283 43.429 342.15C60.2341 352.208 64.3882 362.868 88.7462 363.472C82.3263 386.604 72.3188 406.517 83.8369 434.074C89.6904 429.649 101.02 383.586 134.819 402.092C134.063 430.654 139.728 449.16 152.568 464.447C162.764 476.515 185.045 493.412 203.55 495.624ZM88.9351 318.013C98.3761 310.571 115.559 311.174 121.601 323.645C117.258 336.518 90.6345 335.714 88.9351 318.013ZM342.145 151.062C335.914 130.948 336.858 117.672 340.446 109.627C347.999 93.535 366.692 99.5693 359.705 117.069C358.384 121.293 344.411 147.643 342.145 151.062ZM341.39 438.298C323.829 436.085 325.34 392.034 326.095 376.546C331.382 382.782 339.879 393.241 344.411 404.908C348.754 415.971 349.698 428.039 341.39 438.298Z" fill="#EE7203"/>
</svg>
