<svg width="14" height="14" viewBox="0 0 14 14" fill="none" xmlns="http://www.w3.org/2000/svg">
<g clip-path="url(#clip0_47_1108)">
<path d="M1.99134 6.26761C1.64406 6.13256 1.47042 6.06503 1.41972 5.96773C1.37577 5.88338 1.37571 5.7829 1.41956 5.6985C1.47014 5.60114 1.64371 5.53341 1.99083 5.39794L11.842 1.55358C12.1554 1.43129 12.3121 1.37015 12.4122 1.40359C12.4991 1.43264 12.5673 1.50087 12.5964 1.58782C12.6298 1.68793 12.5687 1.84461 12.4464 2.15797L8.60204 12.0092C8.46658 12.3563 8.39885 12.5298 8.30149 12.5804C8.21708 12.6243 8.1166 12.6242 8.03226 12.5803C7.93495 12.5296 7.86743 12.3559 7.73237 12.0086L6.19931 8.06647C6.17189 7.99598 6.15818 7.96073 6.13701 7.93105C6.11825 7.90474 6.09524 7.88174 6.06894 7.86297C6.03925 7.8418 6.00401 7.82809 5.93351 7.80068L1.99134 6.26761Z" stroke="white" stroke-linecap="round" stroke-linejoin="round"/>
</g>
<defs>
<clipPath id="clip0_47_1108">
<rect width="14" height="14" fill="white"/>
</clipPath>
</defs>
</svg>
