<svg width="14" height="14" viewBox="0 0 14 14" fill="none" xmlns="http://www.w3.org/2000/svg">
<path d="M1.1665 4.08325L4.19624 6.10308C4.37104 6.21961 4.45843 6.27787 4.55298 6.31915C4.63691 6.35578 4.72486 6.38241 4.81501 6.39848C4.91657 6.41659 5.02161 6.41659 5.23168 6.41659H8.76799C8.97806 6.41659 9.0831 6.41659 9.18467 6.39848C9.27482 6.38241 9.36276 6.35578 9.44669 6.31915C9.54124 6.27787 9.62864 6.2196 9.80343 6.10308L12.8332 4.08325M3.9665 11.6666H10.0332C11.0133 11.6666 11.5033 11.6666 11.8777 11.4758C12.2069 11.3081 12.4747 11.0404 12.6424 10.7111C12.8332 10.3367 12.8332 9.84668 12.8332 8.86659V5.13325C12.8332 4.15316 12.8332 3.66311 12.6424 3.28877C12.4747 2.95949 12.2069 2.69177 11.8777 2.52399C11.5033 2.33325 11.0133 2.33325 10.0332 2.33325H3.9665C2.98641 2.33325 2.49637 2.33325 2.12202 2.52399C1.79274 2.69177 1.52502 2.95949 1.35724 3.28877C1.1665 3.66311 1.1665 4.15316 1.1665 5.13325V8.86659C1.1665 9.84668 1.1665 10.3367 1.35724 10.7111C1.52502 11.0404 1.79274 11.3081 2.12202 11.4758C2.49637 11.6666 2.98641 11.6666 3.9665 11.6666Z" stroke="white" stroke-linecap="round" stroke-linejoin="round"/>
</svg>
