<svg width="14" height="14" viewBox="0 0 14 14" fill="none" xmlns="http://www.w3.org/2000/svg">
<path d="M4.88849 5.16446C5.29449 6.01007 5.84795 6.80261 6.54887 7.50353C7.24979 8.20445 8.04234 8.75791 8.88795 9.16391C8.96068 9.19883 8.99705 9.21629 9.04307 9.22971C9.20661 9.27738 9.40743 9.24314 9.54593 9.14396C9.5849 9.11606 9.61824 9.08271 9.68493 9.01603C9.88886 8.8121 9.99083 8.71013 10.0934 8.64346C10.4801 8.39205 10.9786 8.39205 11.3652 8.64346C11.4678 8.71013 11.5698 8.8121 11.7737 9.01603L11.8874 9.12971C12.1974 9.43971 12.3524 9.59472 12.4366 9.76119C12.604 10.0923 12.604 10.4833 12.4366 10.8143C12.3524 10.9808 12.1974 11.1358 11.8874 11.4458L11.7954 11.5378C11.4865 11.8467 11.332 12.0012 11.122 12.1192C10.8889 12.2501 10.527 12.3442 10.2597 12.3434C10.0188 12.3427 9.85416 12.296 9.5249 12.2025C7.75542 11.7003 6.08571 10.7527 4.69272 9.35968C3.29973 7.9667 2.35212 6.29699 1.84989 4.5275C1.75643 4.19824 1.70971 4.03361 1.70899 3.79273C1.70819 3.52543 1.80232 3.16348 1.93323 2.93043C2.05121 2.72041 2.20568 2.56594 2.51463 2.25699L2.60659 2.16504C2.91659 1.85503 3.0716 1.70003 3.23807 1.61583C3.56915 1.44837 3.96014 1.44837 4.29121 1.61583C4.45768 1.70003 4.61269 1.85503 4.9227 2.16504L5.03637 2.27871C5.24031 2.48265 5.34228 2.58462 5.40894 2.68716C5.66036 3.07384 5.66036 3.57235 5.40894 3.95903C5.34228 4.06157 5.24031 4.16354 5.03637 4.36748C4.96969 4.43416 4.93635 4.4675 4.90844 4.50647C4.80927 4.64497 4.77502 4.84579 4.8227 5.00933C4.83611 5.05535 4.85357 5.09172 4.88849 5.16446Z" stroke="white" stroke-linecap="round" stroke-linejoin="round"/>
</svg>
