<svg width="103" height="71" viewBox="0 0 103 71" fill="none" xmlns="http://www.w3.org/2000/svg">
<path d="M99.9156 11.0875C98.7398 6.72095 95.2868 3.2895 90.8934 2.12064C82.9384 6.34788e-07 51.0246 0 51.0246 0C51.0246 0 19.1112 6.34788e-07 11.1559 2.12064C6.76243 3.2895 3.3098 6.72095 2.13373 11.0875C6.38705e-07 18.9939 0 35.4999 0 35.4999C0 35.4999 6.38705e-07 52.006 2.13373 59.9125C3.3098 64.279 6.76243 67.7104 11.1559 68.8791C19.1112 70.9998 51.0246 70.9998 51.0246 70.9998C51.0246 70.9998 82.9384 70.9998 90.8934 68.8791C95.2868 67.7104 98.7398 64.279 99.9156 59.9125C102.049 52.006 102.049 35.4999 102.049 35.4999C102.049 35.4999 102.041 18.9939 99.9156 11.0875Z" fill="#FF0000"/>
<path d="M40.8101 50.713L67.3221 35.5013L40.8101 20.2893V50.713Z" fill="white"/>
</svg>
