<svg width="24" height="24" viewBox="0 0 24 24" fill="none" xmlns="http://www.w3.org/2000/svg">
<path fill-rule="evenodd" clip-rule="evenodd" d="M8.18407 4.67323L8.44691 2.24017L8.80945 1.49674L10.1327 3.60152C10.1327 3.60152 11.311 3.97807 11.3563 3.8429C11.4016 3.69807 11.7188 1.8057 11.7188 1.8057L12.6342 0.743652C12.6342 0.743652 13.9756 2.02776 14.1478 2.37534C14.32 2.72292 14.9635 4.28703 14.9545 4.68288C14.9454 5.07874 14.8457 5.41666 14.9998 5.34907C15.1539 5.27183 16.3684 3.79462 16.3684 3.79462L18.1901 3.13809L19.4227 3.10912L18.4711 5.90906C18.4711 5.90906 18.4801 6.90352 18.5617 6.92283C18.6523 6.94214 20.0209 6.4787 20.0209 6.4787L21.3623 6.74904C21.3623 6.74904 20.1297 8.12005 20.0209 8.28418C19.9122 8.45797 19.4499 9.85794 19.4499 9.98346C19.4499 10.109 19.4409 10.5338 19.4409 10.5338C19.4409 10.5338 20.6826 10.5241 20.8094 10.6786C20.9363 10.8427 21.1992 11.1903 21.3714 11.3738C21.5436 11.5476 23.2113 12.4455 23.2113 12.4455L23.4016 12.7062C23.4016 12.7062 21.8336 14.7144 21.7792 14.753C21.7158 14.7916 20.5104 15.3613 20.1116 15.4289C19.7128 15.4868 18.888 15.5737 18.888 15.5737L19.4952 16.3268L20.0844 17.7654L20.2838 19.3391L20.1388 19.7446C20.1388 19.7446 19.2596 19.8701 18.9605 19.706C18.6614 19.5419 17.6554 18.8467 17.6554 18.8467L17.3382 21.0577L16.7218 22.7087L15.5073 23.2783C15.5073 23.2783 15.5708 22.3997 15.2898 22.0425C15.0088 21.6853 14.5557 21.0094 14.1388 20.8453C13.7128 20.6715 13.2324 20.517 13.178 20.2853C13.1236 20.0439 13.0874 19.3874 13.0874 19.3874C12.5798 18.615 11.9273 18.4798 11.3381 18.4219C10.894 18.3833 10.5224 18.2288 10.0602 18.7791L9.05416 19.9764C9.05416 19.9764 9.24449 21.888 9.28075 22.2066C9.317 22.5253 9.47108 23.3942 9.47108 23.3942L8.51942 22.8632C8.51942 22.8632 7.79434 22.4191 7.67652 22.0522C7.56776 21.6853 7.03301 20.4398 7.02395 20.2177C7.01489 19.9957 6.83362 18.9046 6.83362 18.9046C6.83362 18.9046 6.19011 18.6633 6.07229 18.6826C5.95446 18.6922 5.05718 19.0302 4.96655 19.0784C4.87591 19.1267 4.29585 19.8026 4.30492 19.5322C4.31398 19.2619 4.34117 18.7116 4.43181 18.5764C4.52244 18.4412 4.75809 17.3888 4.75809 17.3888C4.75809 17.3888 5.02093 16.8481 4.62214 16.8481C4.22335 16.8481 3.49827 16.655 3.4167 16.5971C3.32606 16.5295 2.54661 16.0178 2.22939 15.9985C1.92123 15.9695 0.797363 15.8826 0.797363 15.8826C0.797363 15.8826 1.15084 14.8689 1.20522 14.7723C1.26866 14.6758 1.77621 13.8744 1.87591 13.8261C1.98467 13.7779 3.48014 13.0634 3.48014 13.0634L3.83362 12.822C3.83362 12.822 2.83664 12.2234 2.64631 12.1558C2.45597 12.0882 1.93029 11.8082 1.81247 11.6441C1.69464 11.48 1.41368 10.9103 1.41368 10.9103L1.39555 10.5917L3.42576 10.6303C3.42576 10.6303 3.28981 10.2635 3.23543 10.2152C3.17199 10.1669 2.46504 9.69381 2.39253 9.61657C2.32002 9.53933 1.75809 9.00831 1.75809 9.00831L1.1599 7.58902L1.0602 6.94214C1.0602 6.94214 2.65537 7.22214 2.70069 7.23179C2.73694 7.24145 3.85174 7.36696 3.94238 7.36696C4.03301 7.36696 4.64026 7.29938 4.65839 7.29938C4.67652 7.29938 4.38649 5.82217 4.17803 5.44562C3.96957 5.06908 3.63422 4.51875 3.59797 4.43185C3.55265 4.34496 2.99072 3.98772 3.96957 3.97807C4.95748 3.96841 6.48014 4.00703 6.60703 4.01669C6.74298 4.02634 7.48619 4.44151 7.51338 4.48978C7.52244 4.5284 8.18407 4.67323 8.18407 4.67323Z" fill="#FFCC00"/>
<path fill-rule="evenodd" clip-rule="evenodd" d="M12.2538 15.7088C12.8338 14.135 14.4018 12.1557 15.4441 12.9088C15.281 13.2757 13.8852 15.226 12.8701 16.1529C12.1541 16.7998 11.855 16.8094 12.2538 15.7088ZM14.6193 20.5845C15.5076 20.8549 15.7341 21.8976 15.6888 22.7955C17.0937 22.1679 17.4018 20.0342 17.1571 17.9487C17.7915 18.8659 18.3082 19.2714 19.7311 19.368C19.8489 18.3832 19.7311 17.6108 19.3686 16.877C18.9245 15.9791 18.5619 15.757 18.2991 15.6025C17.7372 15.2743 18.0544 15.0426 18.5257 15.1101C18.9517 15.1681 19.6314 15.3419 20.8278 14.7433C21.5891 14.3667 22.6042 13.4302 22.8943 12.6385C20.6647 12.0302 20.8822 10.0413 18.9063 11.393C18.9154 9.41371 19.0151 8.2165 20.6918 7.02894C19.4411 6.35309 18.2719 7.78202 18.1269 7.91719C17.5287 5.32966 18.3172 4.53795 18.7069 3.40832C16.568 3.58211 15.6979 4.16141 15.2266 6.22757C14.6375 5.72552 14.6012 5.81241 13.5952 5.67724C14.0665 4.58623 14.3474 4.3352 13.7221 2.9835C13.3142 2.1049 13.0242 2.33662 12.4985 1.21664C10.9668 2.72282 12.1088 4.09383 11.3927 4.67312C10.2598 5.58069 9.11782 2.54903 8.8006 2.24973C8.3293 3.30212 8.32024 5.08829 9.28097 5.78345C8.8006 5.93793 8.48339 6.21792 8.19335 6.4786C7.85801 6.10206 7.70393 5.34897 6.58006 4.78898C5.65559 4.32554 4.93051 4.21934 4.1148 4.61519C4.86707 4.92415 4.60423 6.52688 5.7281 8.03305C3.86103 7.38617 3.51662 8.39029 1.35045 7.48272C1.44109 8.5158 2.07553 8.97924 2.64653 9.3944C2.90937 9.5875 3.82477 10.0799 4.23263 10.2923C4.5136 10.4371 4.75831 10.7268 4.3142 10.8909C3.63444 11.1323 1.71299 10.833 1.60423 10.833C1.87613 11.4702 2.32024 11.8081 3.04532 12.0881C4.19638 12.5323 4.92145 11.5571 4.76737 13.1405C4.54985 13.2854 1.38671 13.7874 1.30514 15.4191C1.70393 15.3032 2.12991 15.3515 2.59215 15.4191C3.46224 15.6991 3.34441 15.9984 3.73414 16.3653C4.15106 16.6936 5.03928 16.6163 5.60121 16.7225C5.48338 17.0025 4.62236 17.8425 4.53172 18.9045C5.07553 18.1032 5.96375 18.0935 7.22356 18.5377C7.15106 20.1887 7.50453 21.9555 9.04532 22.7376C8.78248 21.6852 8.58308 19.2521 9.571 18.528C8.76435 18.1804 8.18429 17.6204 7.60423 16.9542L8.32931 14.3571C11.6284 14.2412 13.9758 11.084 13.3686 8.97924C12.9426 7.52134 11.3112 6.26619 8.17523 8.30339C7.17825 8.95028 7.27795 10.0027 8.67372 9.21096C14.3202 6.4786 12.1541 12.7833 8.78248 13.0536C8.80967 12.9185 9.30816 11.6537 9.3716 11.4895C9.98792 9.85784 9.38066 8.47718 8.22054 10.7654C7.5861 12.0302 6.73414 14.3764 6.44411 15.7184C5.94562 14.7626 5.66465 13.6426 5.69184 12.4647C5.77341 8.95993 8.51057 6.18895 11.8006 6.2855C15.0906 6.3724 17.6918 9.2882 17.6012 12.793C17.565 14.2702 17.2568 15.9694 16.0876 16.7515C15.6616 17.0411 15.5347 16.877 15.8429 16.0853C16.1782 14.9364 16.7946 13.5267 17.0755 12.4164C17.3474 11.3544 16.5498 11.2192 16.0514 11.8757C12.6526 10.1861 9.81571 16.8384 11.2568 17.8811C12.1178 18.499 13.423 17.0701 14.3021 16.0274C14.5106 15.7763 14.7009 15.5446 14.8459 15.3805C14.7825 15.5446 14.6918 15.8053 14.6012 16.095C14.3565 16.9156 14.1934 17.9584 15.2266 17.6784C14.5921 18.1901 13.858 18.5666 13.0695 18.779C13.8218 19.4259 13.8943 20.2949 14.6193 20.5845ZM9.77039 23.79C9.571 22.2548 9.61631 20.7293 9.95166 19.7735C10.3233 18.7308 12.2085 18.3252 12.716 19.5804C13.4048 21.3183 14.864 21.0093 15.0272 22.641C15.0997 23.4038 14.7009 24.4175 15.5891 23.8189C17.1934 22.9017 17.8822 21.859 17.8187 19.3776C18.3897 19.7928 19.3595 20.1693 20.2115 20.208C20.6012 18.4411 20.6103 17.5432 19.568 15.9019C21.2175 15.9115 23.2749 14.386 24 12.1461C21.8701 11.4509 22.5498 11.5764 20.9456 10.0992C20.5106 9.74198 19.6858 10.0606 19.7311 9.81922C19.8218 9.26889 20.0665 9.08544 21.8157 6.62343C20.8731 6.08275 19.9668 5.72552 19.0423 6.27585C18.6344 4.86622 19.5045 3.86211 20.0302 2.66489C17.0755 2.58765 16.7764 2.50076 15.1722 4.23865C14.6647 1.42905 13.3051 1.65112 12.4804 0.000119967C11.864 -0.01919 10.6133 2.298 10.6858 3.04144C9.63444 2.91592 9.34441 1.26492 8.63746 1.04286C8.18429 1.58353 7.71299 3.15729 7.77644 4.09383C7.48641 3.88142 7.25076 3.72694 6.80665 3.62073C5.67372 3.34074 3.48036 3.31177 2.61027 3.72694C2.81873 4.67312 3.62538 5.29104 3.89728 7.06756C1.54079 6.99997 1.40483 6.49791 0.552871 6.40136C0.543807 9.03717 1.64048 9.70336 2.76435 10.3116C2.04834 10.3696 1.48641 10.3599 0.942599 10.3213C0.752267 12.233 2.3293 12.3392 2.60121 12.764C1.56798 12.9861 0.0362538 14.9267 0 16.5487C0.317221 16.4715 0.942598 15.8536 2.08459 16.4232C2.89124 16.906 3.09063 17.4177 4.25982 17.4466C3.95166 18.557 3.4713 19.5128 4.02417 20.8355C4.30514 20.6231 4.84894 18.4121 6.4713 19.3004C6.43505 20.6714 6.70695 21.5597 7.32326 22.2934C7.81269 22.8727 8.88218 23.6838 9.77039 23.79ZM4.26888 15.2646C4.72205 14.9074 5.54683 14.9364 5.83686 15.535C5.6284 16.1529 4.35045 16.1143 4.26888 15.2646ZM16.423 7.251C16.1239 6.2855 16.1692 5.64828 16.3414 5.26208C16.7039 4.48968 17.6012 4.77933 17.2659 5.61931C17.2024 5.82206 16.5317 7.08686 16.423 7.251ZM16.3867 21.0383C15.5438 20.9321 15.6163 18.8177 15.6526 18.0742C15.9063 18.3735 16.3142 18.8756 16.5317 19.4356C16.7402 19.9666 16.7855 20.5459 16.3867 21.0383Z" fill="#EE7203"/>
</svg>
