<svg width="26" height="26" viewBox="0 0 26 26" fill="none" xmlns="http://www.w3.org/2000/svg">
<path d="M5.84316 12.7133C9.62361 11.0316 12.1445 9.92296 13.4058 9.3873C17.0072 7.85788 17.7556 7.5922 18.2433 7.58334C18.3506 7.5815 18.5905 7.60865 18.7458 7.73737C18.877 7.84606 18.9131 7.99289 18.9304 8.09594C18.9477 8.199 18.9692 8.43375 18.9521 8.61718C18.7569 10.7108 17.9125 15.7916 17.4829 18.1365C17.3011 19.1288 16.9431 19.4615 16.5966 19.494C15.8435 19.5648 15.2717 18.9859 14.5423 18.4977C13.4009 17.7338 12.7561 17.2583 11.6482 16.5128C10.3679 15.6514 11.1979 15.1779 11.9275 14.4041C12.1185 14.2016 15.4366 11.1201 15.5008 10.8405C15.5088 10.8056 15.5163 10.6753 15.4405 10.6065C15.3646 10.5376 15.2527 10.5612 15.172 10.5799C15.0575 10.6064 13.2342 11.8369 9.70197 14.2714C9.18442 14.6342 8.71564 14.811 8.29563 14.8017C7.8326 14.7915 6.94192 14.5344 6.2798 14.3147C5.46767 14.0451 4.82221 13.9026 4.87841 13.4449C4.90769 13.2064 5.22927 12.9626 5.84316 12.7133Z" fill="white"/>
</svg>
