<svg width="26" height="26" viewBox="0 0 26 26" fill="none" xmlns="http://www.w3.org/2000/svg">
<path fill-rule="evenodd" clip-rule="evenodd" d="M21.2689 8.95629C21.3894 8.55456 21.2689 8.25928 20.6954 8.25928H18.7991C18.3169 8.25928 18.0948 8.51433 17.9742 8.79565C17.9742 8.79565 17.0099 11.1461 15.6437 12.6729C15.2018 13.1148 15.0009 13.2553 14.7598 13.2553C14.6392 13.2553 14.4648 13.1148 14.4648 12.7131V8.95629C14.4648 8.4741 14.3249 8.25928 13.923 8.25928H10.9431C10.6419 8.25928 10.4607 8.48304 10.4607 8.69515C10.4607 9.15229 11.1436 9.25767 11.214 10.5433V13.3359C11.214 13.9481 11.1035 14.0592 10.8624 14.0592C10.2196 14.0592 8.65595 11.698 7.7284 8.99652C7.54663 8.47139 7.36431 8.25928 6.87968 8.25928H4.9834C4.44161 8.25928 4.33325 8.51433 4.33325 8.79565C4.33325 9.29789 4.97622 11.7891 7.32666 15.0837C8.8938 17.3335 11.1013 18.5533 13.1103 18.5533C14.3158 18.5533 14.4648 18.2824 14.4648 17.8158V16.1153C14.4648 15.5735 14.579 15.4654 14.9605 15.4654C15.242 15.4654 15.724 15.606 16.8492 16.6908C18.1349 17.9763 18.3467 18.5533 19.07 18.5533H20.9663C21.5081 18.5533 21.779 18.2824 21.6227 17.7478C21.4517 17.215 20.8379 16.4421 20.0233 15.5257C19.5813 15.0032 18.9183 14.4407 18.7176 14.1595C18.4363 13.7979 18.5166 13.6373 18.7176 13.316C18.7176 13.316 21.0278 10.0614 21.2689 8.95643V8.95629Z" fill="white"/>
</svg>
