<svg width="26" height="26" viewBox="0 0 26 26" fill="none" xmlns="http://www.w3.org/2000/svg">
<path fill-rule="evenodd" clip-rule="evenodd" d="M19.3581 7.6593C20.0541 7.8467 20.6029 8.3955 20.7903 9.09154C21.1383 10.3632 21.1249 13.0135 21.1249 13.0135C21.1249 13.0135 21.1249 15.6504 20.7903 16.922C20.6029 17.6181 20.0541 18.1669 19.3581 18.3543C18.0864 18.6889 13 18.6889 13 18.6889C13 18.6889 7.92688 18.6889 6.64188 18.3409C5.94584 18.1535 5.39703 17.6047 5.20964 16.9086C4.875 15.6504 4.875 13.0001 4.875 13.0001C4.875 13.0001 4.875 10.3632 5.20964 9.09154C5.39703 8.3955 5.95922 7.83331 6.64188 7.64592C7.9135 7.31128 13 7.31128 13 7.31128C13 7.31128 18.0864 7.31128 19.3581 7.6593ZM15.6101 13.0001L11.3803 15.4362V10.5639L15.6101 13.0001Z" fill="white"/>
</svg>
